<?xml version="1.0" standalone="no"?>
<!DOCTYPE svg PUBLIC "-//W3C//DTD SVG 20010904//EN"
 "http://www.w3.org/TR/2001/REC-SVG-20010904/DTD/svg10.dtd">
<svg version="1.0" xmlns="http://www.w3.org/2000/svg"
 width="738.000000pt" height="720.000000pt" viewBox="0 0 738.000000 720.000000"
 preserveAspectRatio="xMidYMid meet">
<metadata>
Created by potrace 1.10, written by Peter Selinger 2001-2011
</metadata>
<g transform="translate(0.000000,720.000000) scale(0.100000,-0.100000)"
fill="#28a745" stroke="none">
<path d="M3265 6104 c-33 -7 -88 -13 -123 -14 -54 0 -112 -10 -267 -48 -29 -8
-30 -9 -30 -67 0 -33 3 -68 7 -77 7 -14 33 -183 43 -274 5 -52 38 -109 60
-106 11 2 35 6 53 9 54 9 62 32 50 151 -10 92 -9 105 6 120 13 13 20 14 34 5
9 -7 40 -24 67 -39 28 -14 61 -36 75 -48 14 -13 41 -33 60 -46 19 -13 50 -37
68 -54 32 -30 36 -31 123 -31 54 0 89 4 89 10 0 16 -57 75 -72 75 -16 0 -68
64 -68 84 0 8 12 21 27 28 33 16 82 94 90 143 7 46 -22 142 -51 160 -19 13
-58 21 -146 29 -19 2 -62 -2 -95 -10z m88 -152 c20 -18 23 -55 5 -70 -7 -5
-35 -12 -63 -15 -27 -3 -86 -11 -130 -16 -94 -12 -113 -8 -121 25 -13 51 6 68
87 79 112 16 201 15 222 -3z"/>
<path d="M2448 6070 c-30 -23 -47 -96 -30 -126 16 -29 -5 -60 -51 -74 -57 -17
-152 -64 -185 -92 -15 -13 -48 -31 -72 -42 -25 -10 -52 -22 -60 -27 -8 -5 -32
-18 -52 -29 -45 -24 -49 -51 -19 -114 52 -108 81 -220 63 -238 -11 -11 -75 4
-187 43 -36 13 -101 26 -172 35 -64 8 -69 5 -204 -118 -105 -95 -113 -112 -79
-155 11 -14 20 -32 20 -40 0 -7 9 -27 20 -43 11 -17 28 -42 39 -58 10 -15 21
-37 25 -48 4 -12 15 -29 26 -39 11 -10 20 -26 20 -37 0 -10 9 -27 19 -37 11
-11 24 -29 31 -40 16 -30 29 -26 88 29 48 45 52 52 47 82 -4 18 -22 58 -40 88
-50 80 -67 121 -69 160 l-1 35 60 -3 c64 -3 232 -45 277 -68 34 -18 82 -18 98
1 6 8 40 30 73 50 34 19 80 48 102 65 22 17 54 36 70 43 17 6 63 29 104 49 41
21 82 38 91 38 10 0 28 8 41 19 13 10 35 21 49 24 48 11 220 75 234 86 10 8
14 29 13 63 -3 68 -21 80 -75 50 -22 -12 -50 -22 -64 -22 -13 0 -40 -9 -61
-20 -20 -11 -47 -20 -60 -20 -12 0 -39 -11 -59 -25 -67 -46 -88 -32 -127 80
-43 122 -37 129 159 209 36 15 77 34 92 42 14 8 44 14 65 14 61 0 75 16 71 80
l-3 55 -58 -3 c-32 -1 -74 -9 -94 -17 -19 -8 -45 -15 -57 -15 -12 0 -31 -7
-42 -15 -19 -14 -64 -21 -64 -9 0 3 14 25 30 48 17 23 32 56 33 72 2 24 -2 29
-24 32 -14 2 -36 -6 -51 -18z m-278 -412 c0 -19 -2 -20 -10 -8 -13 19 -13 30
0 30 6 0 10 -10 10 -22z"/>
<path d="M4024 6069 c-11 -4 -33 -23 -50 -43 -16 -20 -41 -50 -56 -67 -15 -17
-30 -40 -33 -50 -4 -11 -10 -19 -15 -19 -5 0 -11 -9 -15 -19 -5 -16 -37 -62
-74 -107 -5 -6 -18 -29 -30 -51 -11 -22 -32 -55 -47 -72 -17 -21 -23 -36 -17
-42 13 -13 132 -31 159 -25 18 5 134 144 134 161 0 3 8 14 18 24 9 11 33 40
52 65 56 73 93 60 106 -39 l7 -45 -36 0 c-45 0 -110 -51 -105 -84 3 -18 12
-22 64 -27 34 -3 79 -15 100 -26 38 -19 46 -30 78 -105 12 -30 21 -38 41 -38
14 0 41 -9 61 -19 39 -21 64 -18 64 8 0 9 -11 49 -25 89 -14 41 -25 82 -25 93
0 10 -6 36 -14 56 -8 21 -28 85 -45 143 -18 58 -36 112 -42 120 -5 8 -13 24
-18 35 -14 33 -43 51 -101 64 -30 7 -69 16 -85 20 -17 5 -40 5 -51 0z"/>
<path d="M4632 5888 c-7 -7 -12 -23 -12 -36 0 -13 -5 -32 -11 -43 -14 -28 9
-53 70 -75 57 -22 141 -81 141 -100 0 -23 -37 -149 -51 -175 -7 -13 -16 -42
-20 -64 -4 -22 -10 -56 -14 -76 -7 -34 -6 -36 45 -62 81 -42 95 -38 116 38 7
22 29 85 51 140 31 79 43 101 60 103 28 4 121 -41 152 -73 13 -14 29 -25 37
-25 19 0 67 74 62 96 -3 19 -81 83 -133 109 -16 9 -48 27 -70 40 -22 13 -71
41 -110 61 -38 20 -75 40 -81 45 -25 20 -106 59 -144 69 -23 6 -44 18 -47 26
-6 17 -25 18 -41 2z"/>
<path d="M2639 5753 c-24 -8 -58 -21 -76 -29 -17 -8 -40 -14 -51 -14 -12 0
-30 -14 -43 -31 -21 -30 -21 -32 -6 -65 17 -34 34 -42 53 -25 5 5 45 23 89 41
123 48 133 57 122 102 -9 33 -33 39 -88 21z"/>
<path d="M5316 5474 c-9 -8 -16 -22 -16 -30 0 -8 -6 -17 -14 -20 -8 -3 -16
-19 -20 -35 -3 -16 -17 -46 -31 -67 -14 -20 -25 -46 -25 -58 0 -12 -18 -57
-40 -100 -53 -104 -52 -122 7 -174 76 -67 68 -75 224 229 38 74 69 140 69 146
0 14 -114 125 -128 125 -6 0 -18 -7 -26 -16z"/>
<path d="M3405 5389 c-104 -4 -209 -12 -232 -18 -24 -6 -75 -15 -115 -21 -90
-12 -221 -46 -268 -70 -19 -10 -53 -21 -75 -25 -22 -3 -60 -16 -85 -27 -25
-11 -67 -31 -95 -43 -166 -76 -296 -144 -330 -175 -11 -10 -33 -25 -50 -34
-134 -75 -431 -336 -585 -516 -79 -92 -234 -298 -255 -340 -10 -19 -32 -53
-49 -75 -18 -22 -40 -56 -49 -75 -10 -19 -24 -46 -32 -60 -23 -42 -112 -233
-125 -270 -7 -19 -22 -44 -32 -56 -10 -11 -18 -30 -18 -42 0 -22 -18 -71 -51
-134 -11 -22 -19 -57 -19 -87 0 -27 -4 -52 -8 -55 -5 -3 -16 -33 -26 -68 -10
-35 -22 -71 -27 -81 -5 -9 -14 -52 -20 -95 -5 -42 -16 -111 -24 -152 -22 -117
-29 -405 -12 -460 12 -38 15 -41 21 -23 4 12 11 55 15 95 5 41 13 83 19 94 6
11 15 52 20 92 6 40 19 96 30 125 11 29 34 95 51 147 45 141 66 197 78 212 6
7 15 27 19 43 4 17 18 46 31 65 12 19 23 42 23 51 0 9 7 22 15 29 8 7 15 17
15 23 0 13 70 153 103 207 60 99 84 135 103 159 11 14 37 53 57 86 19 33 44
67 54 76 10 9 43 47 73 84 58 73 266 284 340 348 80 67 250 192 289 212 22 11
47 27 57 36 11 9 42 26 69 38 28 12 61 29 75 39 57 37 262 124 379 160 190 59
233 69 391 93 341 52 760 18 1065 -86 28 -10 75 -25 105 -35 65 -22 214 -85
250 -105 14 -8 52 -28 85 -45 82 -41 120 -63 140 -83 9 -9 24 -17 33 -17 25 0
117 -65 142 -100 12 -17 50 -45 83 -61 76 -38 73 -35 57 -54 -13 -16 -110 -47
-205 -66 -33 -6 -82 -20 -110 -30 -72 -26 -263 -88 -307 -100 -78 -19 -125
-30 -183 -44 -33 -8 -78 -21 -100 -31 -22 -9 -76 -21 -120 -26 -189 -20 -214
-21 -230 -8 -9 8 -15 9 -14 4 5 -18 -30 -84 -45 -84 -8 0 -32 -16 -53 -36 -87
-82 -236 -163 -304 -164 -15 0 -38 -9 -53 -21 -18 -14 -36 -19 -53 -16 -14 3
-51 -4 -81 -14 -29 -10 -75 -21 -100 -24 -46 -6 -47 -5 -72 35 -14 23 -35 47
-47 53 -23 13 -75 56 -156 129 -29 26 -57 48 -63 48 -6 0 -32 19 -56 43 -25
23 -62 51 -82 61 -31 17 -36 24 -31 44 3 13 9 37 12 53 6 32 15 36 32 15 23
-27 297 3 316 35 4 5 41 9 84 9 42 0 102 7 132 16 53 16 74 19 215 30 69 6 72
5 106 -25 20 -17 39 -31 43 -31 13 0 133 -99 139 -115 3 -8 14 -15 24 -15 10
0 23 -5 30 -12 9 -9 16 -9 28 3 14 14 12 19 -20 45 -20 16 -64 53 -99 83 -34
29 -72 58 -84 64 -13 6 -23 15 -23 22 0 15 -76 65 -99 65 -10 0 -21 -3 -25 -7
-4 -5 -56 -13 -114 -20 -385 -43 -421 -49 -441 -67 -12 -11 -21 -14 -21 -8 0
22 -41 24 -64 3 -26 -24 -38 -26 -66 -8 -17 10 -25 9 -49 -4 -20 -12 -33 -14
-46 -6 -12 6 -35 6 -69 -1 -28 -6 -80 -16 -116 -22 -89 -16 -95 -25 -40 -63
39 -27 68 -22 91 18 22 36 33 41 59 25 11 -7 12 -12 3 -21 -7 -7 -9 -24 -6
-42 l6 -29 -42 7 c-25 4 -41 3 -41 -3 0 -22 270 -242 297 -242 6 0 15 5 18 10
10 16 45 12 52 -6 4 -10 -1 -22 -10 -29 -21 -15 -22 -41 -3 -48 9 -3 21 4 30
19 22 32 53 31 69 -3 6 -16 17 -32 24 -36 7 -4 30 -23 50 -43 21 -19 46 -37
56 -40 12 -4 17 -16 17 -42 l0 -36 -28 27 c-31 30 -52 35 -52 12 0 -17 49 -65
67 -65 15 0 81 36 104 56 8 8 25 14 37 14 11 0 28 7 36 15 40 41 120 41 86 0
-15 -18 -129 -95 -141 -95 -4 0 -23 -12 -41 -27 -37 -31 -45 -36 -138 -89 -63
-35 -68 -36 -174 -38 -79 -1 -111 -5 -114 -14 -2 -7 17 -33 43 -56 53 -49 54
-73 7 -103 -15 -9 -49 -36 -77 -59 -47 -39 -109 -82 -214 -149 -26 -16 -78
-55 -115 -85 -124 -101 -159 -124 -242 -163 -41 -19 -50 -35 -32 -54 13 -12
19 -12 49 0 60 25 103 39 164 51 66 14 97 27 135 60 14 12 36 30 50 39 133 90
173 114 256 157 53 27 102 55 110 61 14 12 70 4 79 -11 3 -5 0 -18 -7 -29 -9
-15 -9 -23 1 -35 21 -25 52 -19 111 19 30 19 60 35 66 35 12 0 63 -38 147
-113 48 -41 60 -56 134 -169 36 -53 103 -113 165 -148 104 -58 228 -163 228
-191 0 -6 11 -24 25 -41 14 -16 25 -35 25 -42 0 -8 18 -37 41 -65 23 -28 39
-57 36 -65 -3 -7 -23 -15 -44 -18 -21 -2 -708 -3 -1528 -1 -820 2 -1537 3
-1595 2 -258 -2 -516 -6 -527 -7 -18 -3 -16 -29 2 -36 29 -11 6767 -6 6787 5
61 33 11 34 -1405 36 -771 1 -1421 2 -1444 2 -30 1 -43 5 -43 15 0 18 88 86
112 86 21 0 108 48 108 59 0 4 -26 30 -57 57 -31 27 -92 84 -134 127 -78 78
-93 87 -102 65 -3 -7 -6 8 -6 33 -1 33 -6 49 -17 53 -23 9 -24 8 -24 -13 0
-11 -5 -23 -11 -27 -8 -5 -10 3 -4 27 4 19 8 57 10 86 2 28 6 57 10 62 3 6 39
11 80 11 112 0 221 49 240 109 7 22 43 29 60 12 6 -5 46 -28 91 -50 45 -22 87
-48 95 -57 7 -9 50 -41 96 -71 45 -30 85 -64 89 -76 11 -35 72 -124 89 -131
30 -11 53 -6 82 17 15 12 61 38 101 57 65 30 73 37 70 59 -2 14 -13 30 -25 37
-13 6 -31 18 -41 27 -10 10 -23 17 -29 17 -15 0 -56 36 -144 123 -82 83 -94
97 -121 139 -9 14 -75 73 -145 130 -70 58 -150 131 -178 163 -111 129 -149
172 -187 212 -32 34 -37 45 -29 60 9 18 87 63 109 63 17 0 104 48 127 70 12
11 26 20 32 20 6 0 17 7 24 16 7 9 22 20 34 25 19 9 76 47 101 67 5 5 21 15
35 22 13 7 36 23 51 36 15 12 52 34 82 48 30 14 58 31 62 37 3 6 21 17 38 25
17 8 51 28 76 44 25 16 55 34 68 40 12 5 58 28 103 50 44 22 87 40 95 40 7 0
21 -16 29 -36 9 -23 20 -34 28 -31 18 7 28 -1 55 -40 12 -17 31 -35 42 -38 13
-4 20 -15 20 -31 0 -14 11 -35 25 -48 14 -13 45 -52 68 -87 79 -118 86 -127
105 -141 10 -7 33 -41 51 -75 19 -34 42 -65 52 -68 9 -3 21 -19 24 -35 4 -17
26 -58 50 -93 57 -83 125 -212 125 -236 0 -11 10 -28 23 -38 27 -21 57 -77 57
-107 0 -11 16 -36 35 -56 28 -29 45 -65 85 -183 27 -81 50 -162 50 -180 0 -17
10 -52 23 -77 l22 -45 3 90 c3 89 -23 268 -65 435 -8 36 -22 92 -29 125 -7 33
-17 69 -22 80 -11 22 -46 126 -66 195 -7 25 -23 64 -34 87 -12 23 -22 50 -22
60 0 10 -9 29 -20 43 -11 14 -20 32 -20 40 0 8 -14 40 -30 70 -16 30 -39 75
-50 100 -28 60 -60 118 -85 156 -11 17 -31 50 -45 73 -14 24 -35 55 -47 71
-13 15 -23 32 -23 37 0 5 -20 32 -45 59 -25 27 -45 52 -45 57 0 5 -39 55 -86
113 -173 210 -487 477 -694 590 -19 10 -48 29 -63 42 -16 12 -41 25 -55 29
-15 3 -56 22 -92 41 -72 38 -146 67 -290 113 -52 17 -115 37 -140 45 -25 9
-83 22 -130 30 -47 7 -117 21 -157 30 -85 18 -197 21 -458 13z m-745 -1395 c0
-17 -22 -14 -28 4 -2 7 3 12 12 12 9 0 16 -7 16 -16z m55 -44 c3 -11 15 -25
26 -30 10 -6 19 -15 19 -20 0 -16 -47 -11 -54 5 -3 8 -12 15 -21 15 -9 0 -15
9 -15 25 0 31 35 35 45 5z m1535 -580 c38 -38 16 -80 -42 -80 -34 0 -128 52
-128 72 0 22 14 26 88 27 49 1 66 -3 82 -19z m-695 -50 c8 -14 -35 -29 -76
-27 -43 2 -41 20 3 28 52 10 66 10 73 -1z m192 -32 c27 -30 49 -74 58 -118 4
-19 13 -44 19 -55 7 -11 16 -36 19 -55 7 -34 5 -36 -36 -52 -23 -10 -54 -18
-69 -18 -32 0 -43 17 -52 80 -8 53 -25 100 -36 100 -5 0 -13 14 -19 30 -5 17
-17 33 -26 36 -39 15 0 66 44 58 16 -4 37 -1 48 5 25 14 27 14 50 -11z m123
13 c0 -18 -18 -21 -30 -6 -10 13 -9 15 9 15 11 0 21 -4 21 -9z m185 -71 c16
-16 36 -30 44 -30 29 -1 71 -48 71 -79 0 -20 -73 -12 -109 12 -20 13 -53 35
-73 48 -39 25 -47 46 -26 67 22 22 63 14 93 -18z m-547 -22 c16 -16 15 -39 -5
-79 -20 -42 -32 -50 -61 -42 -14 3 -30 -1 -41 -11 -25 -23 -87 -32 -106 -16
-9 7 -15 29 -15 51 0 34 5 42 33 59 17 11 41 22 52 24 11 3 43 9 70 14 28 5
52 10 56 11 3 0 10 -4 17 -11z m855 -80 c9 -7 18 -24 19 -38 3 -23 0 -25 -36
-25 -50 0 -69 24 -42 54 22 24 35 26 59 9z m-773 -24 c0 -14 -5 -34 -10 -45
-13 -23 15 -68 42 -69 20 0 32 -32 23 -61 -6 -18 -11 -16 -54 28 -26 26 -56
63 -67 81 l-19 33 35 29 c43 36 50 37 50 4z m-105 -118 c21 -8 41 -20 43 -27
2 -8 8 -24 14 -36 14 -30 4 -53 -25 -53 -35 0 -97 73 -97 114 0 19 13 20 65 2z
m363 -68 c3 -33 0 -38 -22 -44 -34 -8 -33 -27 2 -40 37 -15 92 -123 92 -181 0
-39 -2 -43 -25 -43 -15 0 -28 7 -32 18 -4 9 -21 35 -38 57 -18 22 -35 51 -38
65 -10 39 -46 92 -68 97 -15 4 -19 14 -19 44 0 51 28 71 95 67 50 -3 50 -3 53
-40z m-222 -122 c33 -28 37 -36 26 -49 -11 -13 -18 -14 -50 -3 -33 11 -37 17
-40 49 -4 47 12 48 64 3z m193 -156 c35 -57 38 -75 15 -84 -18 -7 -44 10 -44
29 0 6 -11 17 -24 23 -26 11 -32 45 -13 70 17 22 35 12 66 -38z"/>
<path d="M5482 5226 c-18 -20 -32 -43 -32 -50 0 -8 -20 -53 -45 -100 -39 -75
-45 -96 -45 -147 0 -50 5 -67 27 -97 35 -47 140 -168 218 -250 33 -35 66 -76
74 -90 26 -51 154 -162 187 -162 12 0 35 7 50 15 16 8 35 15 42 15 14 0 16
-26 3 -35 -6 -3 -24 -27 -42 -52 l-31 -47 28 -54 c16 -30 42 -68 57 -85 l28
-30 92 96 c51 54 98 97 104 97 30 0 35 -42 29 -230 -4 -104 -11 -203 -16 -222
-22 -75 -6 -143 67 -291 23 -49 43 -102 43 -118 0 -22 6 -32 23 -38 27 -10 39
-6 96 34 23 16 50 34 60 40 46 28 98 61 110 73 7 7 31 22 52 33 49 24 50 41 9
146 -40 101 -51 123 -64 123 -10 0 -44 -25 -141 -103 -42 -34 -70 -41 -89 -22
-9 9 -16 19 -16 23 0 4 9 102 20 217 29 310 29 312 -26 409 -26 45 -53 89 -61
98 -16 18 -42 63 -67 116 -8 17 -20 32 -26 32 -21 0 -70 -31 -70 -43 0 -15
-59 -61 -67 -53 -3 3 0 12 6 20 7 8 17 44 22 80 14 89 -4 151 -71 236 -28 36
-61 81 -74 101 -36 53 -292 309 -310 309 -8 0 -19 7 -23 15 -5 8 -29 18 -54
21 -43 6 -47 4 -77 -30z m235 -246 c130 -134 213 -241 213 -274 0 -9 -21 -45
-47 -81 -41 -55 -53 -64 -80 -64 -24 -1 -36 5 -45 23 -15 27 -109 135 -182
207 -45 45 -48 52 -48 96 1 35 7 53 27 73 14 14 25 33 25 43 0 9 8 21 18 26
36 21 60 11 119 -49z m307 -565 c-4 -8 -12 -15 -20 -15 -8 0 -11 6 -8 15 4 8
12 15 20 15 8 0 11 -6 8 -15z"/>
<path d="M1280 5111 c0 -5 -30 -45 -66 -90 -57 -69 -107 -111 -135 -111 -4 0
-5 24 -3 53 3 28 0 59 -5 67 -9 13 -16 10 -43 -18 -28 -28 -33 -39 -32 -80 0
-26 4 -68 8 -94 10 -58 2 -95 -24 -103 -10 -3 -22 -16 -26 -28 -3 -12 -16 -33
-29 -47 -37 -42 -88 -133 -87 -159 0 -13 7 -28 16 -33 10 -5 21 -21 26 -34 7
-17 17 -24 35 -24 18 0 28 -7 36 -27 5 -14 20 -36 32 -48 12 -12 46 -49 75
-83 62 -73 88 -79 117 -29 10 17 24 36 32 40 7 4 13 14 13 21 0 7 11 22 25 34
14 12 25 27 25 34 0 7 9 21 20 33 11 11 46 52 78 91 31 39 87 105 125 146 37
42 67 82 67 89 0 25 -50 89 -69 89 -11 0 -35 -24 -60 -59 -23 -33 -63 -81 -89
-108 -50 -52 -80 -89 -113 -140 -33 -52 -57 -44 -123 37 -31 39 -56 77 -56 86
0 31 133 195 297 365 19 20 24 33 20 50 -12 46 -87 114 -87 80z"/>
<path d="M1283 4824 c-24 -25 -43 -49 -43 -54 0 -5 -11 -19 -24 -32 -37 -35
-76 -98 -76 -122 0 -52 60 -64 85 -16 9 17 20 30 25 30 5 0 11 8 14 18 3 9 33
45 66 79 64 66 69 80 44 118 -23 35 -42 30 -91 -21z"/>
<path d="M763 4424 c-13 -19 -26 -46 -29 -59 -3 -13 -17 -33 -30 -46 -13 -12
-24 -30 -25 -38 0 -9 -17 -45 -39 -81 -62 -105 -184 -358 -196 -406 -4 -16
-13 -39 -21 -50 -15 -24 -37 -187 -28 -215 16 -49 226 -186 266 -174 22 7 99
84 99 98 0 10 132 288 177 372 120 225 132 258 115 321 -7 24 -12 53 -12 64 0
12 -9 24 -22 29 -31 12 -55 40 -63 74 -6 23 -35 40 -35 19 0 -4 -11 -19 -24
-34 -14 -14 -32 -41 -40 -59 -9 -19 -19 -41 -24 -49 -5 -8 -14 -24 -20 -35 -6
-11 -38 -66 -71 -122 -34 -56 -61 -108 -61 -117 0 -22 27 -20 34 2 3 9 20 25
36 34 17 9 39 33 51 52 25 42 71 62 94 40 21 -21 19 -51 -5 -66 -11 -7 -20
-17 -20 -23 0 -5 -23 -57 -51 -115 -80 -165 -102 -204 -113 -212 -21 -15 -50
-8 -77 18 -15 15 -38 32 -51 38 -37 19 -44 56 -19 108 11 24 21 52 21 61 0 9
9 24 19 34 11 10 22 35 26 56 4 21 13 41 20 44 8 2 21 21 30 41 29 65 152 291
170 312 28 33 28 61 -1 91 -36 38 -54 36 -81 -7z"/>
<path d="M2395 4434 c-20 -5 -134 -56 -170 -76 -49 -28 -75 -37 -142 -53 -39
-9 -76 -14 -82 -11 -10 7 -101 -48 -101 -60 0 -3 5 -14 10 -25 13 -23 43 -25
60 -4 7 9 30 15 54 15 22 1 59 7 81 15 22 8 108 20 190 25 83 6 177 17 210 25
33 7 105 17 160 20 55 3 150 14 210 25 61 10 142 21 180 25 91 8 136 22 129
40 -10 26 -71 36 -201 34 -70 -1 -227 1 -348 4 -121 3 -229 4 -240 1z"/>
<path d="M3313 4073 c-18 -7 -16 -32 3 -40 18 -7 35 14 27 34 -5 14 -10 15
-30 6z"/>
<path d="M2916 3712 c-6 -11 21 -52 35 -52 17 0 5 55 -13 58 -9 2 -19 -1 -22
-6z"/>
<path d="M2591 3465 c13 -13 26 -20 28 -14 1 6 -5 17 -15 24 -31 23 -38 17
-13 -10z"/>
<path d="M1783 1855 c-40 -17 -57 -69 -56 -169 0 -64 2 -70 36 -103 l35 -35
160 1 c88 1 167 -2 176 -5 10 -4 16 -18 16 -38 0 -60 -2 -61 -202 -63 -223 -1
-205 0 -212 -19 -11 -29 21 -73 62 -83 40 -11 415 -7 445 4 52 21 79 190 40
257 -28 47 -66 57 -205 54 -143 -3 -184 5 -200 40 -10 21 -8 28 9 45 18 19 33
20 197 21 164 0 177 1 187 19 13 24 3 56 -20 68 -9 5 -111 12 -226 15 -164 4
-217 2 -242 -9z"/>
<path d="M2617 1852 c-8 -10 -45 -82 -83 -162 -37 -79 -85 -176 -106 -214 -21
-38 -39 -83 -41 -100 -2 -27 1 -30 36 -38 45 -9 107 2 118 22 32 63 57 119 63
142 3 15 19 47 35 70 16 24 36 60 45 81 11 27 21 38 33 35 22 -4 61 -73 62
-110 1 -24 -3 -27 -36 -30 -31 -3 -39 -9 -56 -41 -11 -22 -16 -42 -11 -47 5
-4 44 -11 87 -14 44 -3 83 -9 89 -12 5 -3 18 -26 28 -49 l19 -43 66 -7 c54 -6
70 -4 82 8 14 14 13 19 -5 54 -12 21 -35 67 -52 103 -17 36 -35 72 -39 80 -4
8 -12 24 -18 35 -5 11 -16 31 -23 45 -7 14 -16 32 -20 40 -4 8 -17 35 -28 60
-12 25 -22 53 -22 62 0 32 -40 46 -127 46 -63 0 -85 -3 -96 -16z"/>
<path d="M3392 1854 c-12 -8 -22 -22 -22 -30 0 -8 -13 -41 -29 -72 -15 -31
-42 -84 -59 -117 -57 -113 -82 -167 -82 -176 0 -6 -9 -22 -21 -38 -13 -17 -19
-39 -17 -57 3 -29 4 -29 66 -28 40 1 68 6 77 15 7 8 30 54 50 104 20 49 45
101 55 115 9 14 27 44 39 68 28 55 52 55 86 1 32 -50 30 -82 -7 -89 -38 -7
-78 -45 -78 -75 0 -14 3 -25 8 -26 4 -1 34 -2 67 -4 82 -4 113 -18 130 -58 20
-48 32 -54 105 -53 59 2 65 4 68 24 2 14 -11 45 -33 78 -20 30 -42 72 -47 92
-6 20 -19 47 -29 61 -11 13 -19 28 -19 33 0 5 -23 58 -51 118 -44 92 -56 110
-82 119 -46 17 -149 14 -175 -5z"/>
<path d="M3930 1861 c-12 -8 -14 -51 -15 -256 -1 -220 1 -247 16 -261 15 -14
47 -15 221 -12 112 2 210 8 219 12 11 5 17 20 17 45 1 32 -4 40 -31 56 -27 16
-50 19 -139 18 -93 -2 -110 1 -132 18 l-26 20 0 169 c0 122 -3 170 -12 178
-19 15 -101 24 -118 13z"/>
<path d="M4442 1857 c-7 -8 -11 -102 -12 -245 0 -127 -3 -238 -6 -245 -12 -31
109 -48 137 -20 8 8 12 93 13 258 2 213 0 248 -14 255 -24 12 -107 10 -118 -3z"/>
<path d="M4643 1855 c-21 -9 -31 -19 -28 -28 11 -26 12 -373 2 -420 -7 -32 -7
-51 0 -58 15 -15 106 -21 137 -9 25 9 25 11 23 100 -2 71 1 93 13 101 18 11
274 8 287 -4 4 -5 10 -50 13 -100 l5 -92 36 -9 c49 -12 88 -1 99 28 5 14 9
126 9 250 -1 219 -1 226 -22 241 -26 18 -101 20 -115 3 -5 -7 -12 -44 -14 -82
-6 -93 -11 -96 -160 -96 -149 0 -160 7 -153 103 3 61 2 65 -21 76 -33 15 -72
13 -111 -4z"/>
</g>
</svg>
